# xmcd
#
# Track frame offsets:
#	182
#	13402
#	26037
#	39390
#	52190
#	64447
#	77950
#	89405
#	101597
#	114772
#	127862
#	136512
#	150170
#	163297
#	176072
#	187685
#
# Disc length: 2657 seconds
#
# Revision: 0
# Processed by: cddbd v1.4b42PL1 Copyright (c) Steve Scherf et al.
# Submitted via: audiograbber 1.80
#
DISCID=cb0a5f10
DTITLE=Dinah Washington - The Complete Vol.2
DYEAR=1900
DGENRE=
TTITLE0=Embraceable you
TTITLE1=I can't get started with you
TTITLE2=When a woman loves a man
TTITLE3=Joy juice
TTITLE4=OO-we walkie talkie
TTITLE5=The man i love
TTITLE6=You didn't want me then
TTITLE7=A slick chick (On the mellow side)
TTITLE8=Postman blues
TTITLE9=That's why a woman loves a heel
TTITLE10=Mean and evil blues
TTITLE11=Stairway to the stars
TTITLE12=I want to be loved
TTITLE13=You satisfy
TTITLE14=Fool that I am
TTITLE15=There's got to be a change
EXTD=
EXTT0=
EXTT1=
EXTT2=
EXTT3=
EXTT4=
EXTT5=
EXTT6=
EXTT7=
EXTT8=
EXTT9=
EXTT10=
EXTT11=
EXTT12=
EXTT13=
EXTT14=
EXTT15=
PLAYORDER=
